HIERARCHY
ROOT joint_Root
{
	OFFSET 0.0 0.0 0.0
	CHANNELS 6 Xposition Yposition Zposition Zrotation Xrotation Yrotation 
	JOINT Hips
	{
		OFFSET -17.1583 93.1646 452.98
		CHANNELS 6 Xposition Yposition Zposition Zrotation Xrotation Yrotation 
		JOINT Spine
		{
			OFFSET 15.7357 0.0 0.0
			CHANNELS 6 Xposition Yposition Zposition Zrotation Xrotation Yrotation 
			JOINT Chest
			{
				OFFSET 8.98455 -0.406207 0.0
				CHANNELS 6 Xposition Yposition Zposition Zrotation Xrotation Yrotation 
				JOINT Neck
				{
					OFFSET 16.3773 0.0 0.0
					CHANNELS 6 Xposition Yposition Zposition Zrotation Xrotation Yrotation 
					JOINT Head
					{
						OFFSET 6.45672 0.0 0.0
						CHANNELS 6 Xposition Yposition Zposition Zrotation Xrotation Yrotation 
						End Site
						{
							OFFSET 0.0 0.0 0.0
						}
					}
				}
				JOINT Shoulder_L
				{
					OFFSET 12.9942 -0.242716 4.98039
					CHANNELS 6 Xposition Yposition Zposition Zrotation Xrotation Yrotation 
					JOINT UpperArm_L
					{
						OFFSET 5.34809 0.0 0.0
						CHANNELS 6 Xposition Yposition Zposition Zrotation Xrotation Yrotation 
						JOINT LowerArm_L
						{
							OFFSET 24.3286 1.87007e-05 0.0
							CHANNELS 6 Xposition Yposition Zposition Zrotation Xrotation Yrotation 
							JOINT Hand_L
							{
								OFFSET 22.2916 0.0 0.0
								CHANNELS 6 Xposition Yposition Zposition Zrotation Xrotation Yrotation 
								End Site
								{
									OFFSET 0.0 0.0 0.0
								}
							}
						}
					}
				}
				JOINT Shoulder_R
				{
					OFFSET 12.9945 -0.242716 -4.98039
					CHANNELS 6 Xposition Yposition Zposition Zrotation Xrotation Yrotation 
					JOINT UpperArm_R
					{
						OFFSET -5.34813 0.0 0.0
						CHANNELS 6 Xposition Yposition Zposition Zrotation Xrotation Yrotation 
						JOINT LowerArm_R
						{
							OFFSET -24.3289 0.000322201 0.0
							CHANNELS 6 Xposition Yposition Zposition Zrotation Xrotation Yrotation 
							JOINT Hand_R
							{
								OFFSET -22.2915 -0.000108084 0.0
								CHANNELS 6 Xposition Yposition Zposition Zrotation Xrotation Yrotation 
								End Site
								{
									OFFSET 0.0 0.0 0.0
								}
							}
						}
					}
				}
			}
		}
		JOINT UpperLeg_L
		{
			OFFSET -2.19248 -6.46944 0.0
			CHANNELS 6 Xposition Yposition Zposition Zrotation Xrotation Yrotation 
			JOINT LowerLeg_L
			{
				OFFSET 39.0811 0.0 -1.23785e-05
				CHANNELS 6 Xposition Yposition Zposition Zrotation Xrotation Yrotation 
				JOINT Foot_L
				{
					OFFSET 40.9854 0.0 -1.26872e-05
					CHANNELS 6 Xposition Yposition Zposition Zrotation Xrotation Yrotation 
					JOINT Toes_L
					{
						OFFSET 11.7543 0.0 0.0
						CHANNELS 6 Xposition Yposition Zposition Zrotation Xrotation Yrotation 
						End Site
						{
							OFFSET 0.0 0.0 0.0
						}
					}
				}
			}
		}
		JOINT UpperLeg_R
		{
			OFFSET -2.19251 6.46944 0.0
			CHANNELS 6 Xposition Yposition Zposition Zrotation Xrotation Yrotation 
			JOINT LowerLeg_R
			{
				OFFSET -39.0811 -0.00228153 -0.0401928
				CHANNELS 6 Xposition Yposition Zposition Zrotation Xrotation Yrotation 
				JOINT Foot_R
				{
					OFFSET -40.9854 0.0 0.0
					CHANNELS 6 Xposition Yposition Zposition Zrotation Xrotation Yrotation 
					JOINT Toes_R
					{
						OFFSET -11.7543 0.0 0.0
						CHANNELS 6 Xposition Yposition Zposition Zrotation Xrotation Yrotation 
						End Site
						{
							OFFSET 0.0 0.0 0.0
						}
					}
				}
			}
		}
	}
}
MOTION
Frames:	6
Frame Time:	0.0333333
0.000000 0.000000 0.000000 0.000000 0.000000 -0.000000 162.188000 87.205200 204.405000 90.312500 -42.635500 -6.841340 15.735700 0.000005 -0.000001 25.459700 86.555200 -23.237900 8.984550 -0.406207 -0.000000 -4.690680 -6.456180 4.185900 16.377300 -0.000001 -0.000001 -8.598190 -8.557510 -4.023870 6.456720 -0.000001 -0.000000 3.241880 -11.855400 0.368237 12.994200 -0.242716 4.980390 -91.906400 6.915130 -74.546600 5.348090 -0.000007 -0.000001 -59.881100 -14.751800 -12.901300 24.328600 0.000019 0.000005 18.630100 8.853360 -65.462300 22.291600 -0.000001 0.000005 12.826700 4.913320 9.107990 12.994500 -0.242716 -4.980390 89.612900 1.208230 -72.230600 -5.348130 -0.000001 -0.000004 -43.435300 -27.326000 25.970400 -24.328900 0.000322 -0.000009 0.113692 2.080910 -3.156450 -22.291500 -0.000108 -0.000004 20.498100 5.020740 6.863950 -2.192480 -6.469440 -0.000000 -169.707000 -15.038500 5.566140 39.081100 -0.000007 -0.000012 0.142903 -0.186911 37.399400 40.985400 -0.000006 -0.000013 -10.522300 7.573980 -42.377200 11.754300 -0.000000 0.000003 -0.146862 -0.548517 -39.755900 -2.192510 6.469440 -0.000001 -163.737000 3.654600 144.550000 -39.081100 -0.002282 -0.040193 0.040768 -0.062441 30.966100 -40.985400 0.000008 0.000006 12.369900 -14.765800 -62.075000 -11.754300 -0.000006 -0.000006 -0.000087 0.169113 -9.714120
0.000000 0.000000 0.000000 0.000000 0.000000 -0.000000 158.453000 86.875900 207.961000 90.304900 -44.253900 -3.522900 15.735700 0.000005 -0.000001 40.551800 86.161700 -38.625500 8.984550 -0.406207 -0.000000 -2.677510 -6.006160 3.714970 16.377300 -0.000001 -0.000001 -7.246920 -8.276080 -2.956070 6.456720 -0.000001 -0.000000 3.613650 -11.296500 2.580400 12.994200 -0.242716 4.980390 -92.016500 7.042090 -73.976400 5.348090 -0.000007 -0.000001 -62.213100 -9.453980 -8.834020 24.328600 0.000019 0.000005 18.719100 10.702000 -61.280300 22.291600 -0.000001 0.000005 10.800000 4.943210 8.501370 12.994500 -0.242716 -4.980390 89.126800 2.726560 -72.236300 -5.348130 -0.000001 -0.000004 -52.041700 -24.176000 19.014800 -24.328900 0.000322 -0.000009 0.152934 2.639930 -3.338700 -22.291500 -0.000108 -0.000004 15.703600 5.048460 6.279360 -2.192480 -6.469440 -0.000000 -169.398000 -11.779600 3.495390 39.081100 -0.000007 -0.000012 0.238458 -0.223808 46.814900 40.985400 -0.000006 -0.000013 -10.415900 7.917100 -31.251300 11.754300 -0.000000 0.000003 -0.006869 -0.078540 -19.774000 -2.192510 6.469440 -0.000001 -163.786000 4.662730 148.901000 -39.081100 -0.002282 -0.040193 0.139304 -0.183400 36.562200 -40.985400 0.000008 0.000006 11.606000 -14.121200 -68.104900 -11.754300 -0.000006 -0.000006 -0.001305 0.187316 -8.974510
0.000000 0.000000 0.000000 0.000000 0.000000 -0.000000 155.046000 86.632700 210.752000 89.525600 -44.767200 -2.100490 15.735700 0.000005 -0.000001 45.583900 86.015200 -43.703800 8.984550 -0.406207 -0.000000 -1.979920 -5.736060 3.662850 16.377300 -0.000001 -0.000001 -5.025940 -8.573750 -2.539420 6.456720 -0.000001 -0.000000 4.901480 -11.865400 4.319810 12.994200 -0.242716 4.980390 -92.266900 7.522400 -73.176200 5.348090 -0.000007 -0.000001 -63.818500 -2.878300 -6.802780 24.328600 0.000019 0.000005 20.957200 17.112700 -52.488100 22.291600 -0.000001 0.000005 3.579180 5.017070 6.894610 12.994500 -0.242716 -4.980390 88.600800 4.061110 -70.973100 -5.348130 -0.000001 -0.000004 -60.440800 -16.024900 11.612300 -24.328900 0.000322 -0.000009 0.253184 2.931220 -4.953580 -22.291500 -0.000108 -0.000004 6.910170 5.027150 6.744230 -2.192480 -6.469440 -0.000000 -168.601000 -8.261290 -1.813590 39.081100 -0.000007 -0.000012 0.273650 -0.183281 56.186800 40.985400 -0.000006 -0.000013 -11.795200 8.540550 -23.993200 11.754300 -0.000000 0.000003 0.001129 0.021860 -15.690100 -2.192510 6.469440 -0.000001 -163.032000 7.570990 152.806000 -39.081100 -0.002282 -0.040193 0.205614 -0.248985 39.098600 -40.985400 0.000008 0.000006 11.074700 -12.139600 -72.542100 -11.754300 -0.000006 -0.000006 -0.002411 0.201419 -8.401040
0.000000 0.000000 0.000000 0.000000 0.000000 -0.000000 151.931000 86.999100 213.280000 89.084100 -46.601300 -1.698860 15.735700 0.000005 -0.000001 49.780700 86.512000 -47.974100 8.984550 -0.406207 -0.000000 -2.366230 -4.662840 3.518150 16.377300 -0.000001 -0.000001 -2.517010 -9.055150 -1.840120 6.456720 -0.000001 -0.000000 6.671420 -12.616800 4.075710 12.994200 -0.242716 4.980390 -92.636100 8.474850 -72.651400 5.348090 -0.000007 -0.000001 -64.568000 3.127470 -5.371700 24.328600 0.000019 0.000005 21.826500 27.829100 -40.643400 22.291600 -0.000001 0.000005 -6.174370 5.162460 3.577670 12.994500 -0.242716 -4.980390 88.127200 5.220970 -70.235500 -5.348130 -0.000001 -0.000004 -65.954300 -5.057590 6.771570 -24.328900 0.000322 -0.000009 1.387120 7.028250 -11.165000 -22.291500 -0.000108 -0.000004 -5.559050 5.103850 4.930210 -2.192480 -6.469440 -0.000000 -168.165000 -6.312430 -7.815470 39.081100 -0.000007 -0.000012 0.269757 -0.131081 64.083100 40.985400 -0.000006 -0.000013 -12.129800 10.859200 -29.517100 11.754300 -0.000000 0.000003 0.001273 0.025249 -15.552500 -2.192510 6.469440 -0.000001 -163.223000 8.600580 157.165000 -39.081100 -0.002282 -0.040193 0.135121 -0.165379 38.561600 -40.985400 0.000008 0.000006 9.461050 -9.585430 -75.070900 -11.754300 -0.000006 -0.000006 -0.002719 0.205052 -8.253240
0.000000 0.000000 0.000000 0.000000 0.000000 -0.000000 149.054000 87.667300 215.801000 89.927600 -50.300500 -0.342960 15.735700 0.000005 -0.000001 60.152100 87.066700 -58.776700 8.984550 -0.406207 -0.000000 -2.641140 -3.043670 2.681170 16.377300 -0.000001 -0.000001 -0.391505 -8.975250 -1.113590 6.456720 -0.000001 -0.000000 8.852980 -12.974000 3.387020 12.994200 -0.242716 4.980390 -92.900800 8.978030 -72.011200 5.348090 -0.000007 -0.000001 -65.884100 6.321000 -3.149260 24.328600 0.000019 0.000005 14.467700 34.462600 -24.510200 22.291600 -0.000001 0.000005 -12.614000 5.200030 2.729620 12.994500 -0.242716 -4.980390 87.916800 5.901520 -70.517400 -5.348130 -0.000001 -0.000004 -68.890800 8.110630 3.446300 -24.328900 0.000322 -0.000009 3.943450 10.237200 -21.190900 -22.291500 -0.000108 -0.000004 -10.889300 5.315670 -0.387957 -2.192480 -6.469440 -0.000000 -168.783000 -5.616560 -12.866300 39.081100 -0.000007 -0.000012 0.275619 -0.110048 68.233400 40.985400 -0.000006 -0.000013 -12.411900 11.135600 -34.000200 11.754300 -0.000000 0.000003 0.001535 0.031936 -15.281300 -2.192510 6.469440 -0.000001 -164.859000 7.146980 162.425000 -39.081100 -0.002282 -0.040193 0.022078 -0.025215 36.694700 -40.985400 0.000008 0.000006 7.340550 -7.202310 -76.372700 -11.754300 -0.000006 -0.000006 -0.002436 0.201714 -8.389060
0.000000 0.000000 0.000000 0.000000 0.000000 -0.000000 146.332000 88.568700 218.332000 91.958200 -54.762400 1.859540 15.735700 0.000005 -0.000001 73.765900 87.388400 -73.059400 8.984550 -0.406207 -0.000000 -2.741730 -1.524440 1.376750 16.377300 -0.000001 -0.000001 1.286800 -8.525890 -0.539907 6.456720 -0.000001 -0.000000 10.583500 -12.732400 2.895260 12.994200 -0.242716 4.980390 -92.992700 8.771470 -71.076200 5.348090 -0.000007 -0.000001 -67.814900 1.900660 0.869659 24.328600 0.000019 0.000005 5.674000 36.753700 -9.429330 22.291600 -0.000001 0.000005 -13.873300 5.080610 5.534910 12.994500 -0.242716 -4.980390 88.108700 5.533670 -71.097300 -5.348130 -0.000001 -0.000004 -69.861000 19.647800 -0.891607 -24.328900 0.000322 -0.000009 5.260070 9.035620 -30.392500 -22.291500 -0.000108 -0.000004 -7.055440 5.430190 -3.902630 -2.192480 -6.469440 -0.000000 -170.107000 -4.974610 -16.958000 39.081100 -0.000007 -0.000012 0.268760 -0.104513 68.749400 40.985400 -0.000006 -0.000013 -12.186100 9.473160 -38.385100 11.754300 -0.000000 0.000003 0.001716 0.037122 -15.070900 -2.192510 6.469440 -0.000001 -167.101000 4.860740 168.037000 -39.081100 -0.002282 -0.040193 0.021530 -0.027481 33.568300 -40.985400 0.000008 0.000006 6.884160 -4.877350 -76.683200 -11.754300 -0.000006 -0.000006 -0.002308 0.200177 -8.451570
